<svg width="426" height="272" viewBox="0 0 426 272" fill="none" xmlns="http://www.w3.org/2000/svg">
<path fill-rule="evenodd" clip-rule="evenodd" d="M213 272C288.111 272 349 211.111 349 136C349 60.8893 288.111 0 213 0C137.889 0 77 60.8893 77 136C77 211.111 137.889 272 213 272ZM258.5 221C306.825 221 346 182.72 346 135.5C346 88.2797 306.825 50 258.5 50C210.175 50 171 88.2797 171 135.5C171 182.72 210.175 221 258.5 221Z" fill="#186AE5"/>
<rect x="13" y="122" width="55" height="10" fill="#186AE5"/>
<rect y="140" width="59" height="11" fill="#186AE5"/>
<rect x="358" y="122" width="55" height="10" fill="#186AE5"/>
<rect x="367" y="140" width="59" height="11" fill="#186AE5"/>
<circle cx="263" cy="136" r="13" fill="#186AE5"/>
<circle cx="263" cy="89" r="8" fill="#186AE5"/>
<circle cx="262" cy="182" r="6" fill="#186AE5"/>
<circle cx="285" cy="173" r="7" fill="#186AE5"/>
<circle cx="302" cy="157" r="3" fill="#186AE5"/>
<circle cx="309" cy="136" r="4" fill="#186AE5"/>
<circle cx="215.5" cy="135.5" r="8.5" fill="#186AE5"/>
<circle cx="224" cy="159" r="6" fill="#186AE5"/>
<circle cx="240.5" cy="173.5" r="3.5" fill="#186AE5"/>
<circle cx="222" cy="114" r="5" fill="#186AE5"/>
<circle cx="234" cy="95" r="4" fill="#186AE5"/>
<circle cx="286" cy="99" r="5" fill="#186AE5"/>
<circle cx="304.5" cy="117.5" r="4.5" fill="#186AE5"/>
</svg>
